<svg xmlns="http://www.w3.org/2000/svg" width="147" height="32" viewBox="0 0 147 32" fill="none">
<path d="M29.0147 30.4768H22.3764V16.0952C22.3764 10.7755 19.2898 7.33059 14.5035 7.33059C9.71729 7.33059 6.63824 10.7755 6.63824 16.0952V30.4768H0V16.0952C0 7.02574 5.96756 0.692352 14.5112 0.692352C23.0547 0.692352 29.0223 7.02574 29.0223 16.0952V30.4768H29.0147Z" fill="#B0B0B0"/>
<path d="M48.6733 7.07923C43.7422 7.07923 39.7334 11.0881 39.7334 16.0191C39.7334 20.9502 43.7422 24.959 48.6733 24.959C53.6043 24.959 57.6132 20.9502 57.6132 16.0191C57.6132 11.0881 53.6043 7.07923 48.6733 7.07923ZM48.6733 0.73822C57.1102 0.73822 63.9618 7.58224 63.9618 16.0191C63.9618 24.456 57.1102 31.3077 48.6733 31.3077C40.2364 31.3077 33.3848 24.4636 33.3848 16.0191C33.3848 7.57462 40.2364 0.73822 48.6733 0.73822Z" fill="#B0B0B0"/>
<path d="M128.49 7.338H146.172V1.24088H128.49C115.29 1.24088 115.29 11.385 115.29 15.7977C115.29 20.2105 115.29 30.6823 128.49 30.6823H146.172V24.5852H128.49C123.521 24.5852 121.936 22.9085 121.517 18.8311H146.164V12.9245H121.501C121.89 8.73271 123.46 7.338 128.483 7.338" fill="#B0B0B0"/>
<path d="M75.6207 1.38593H68.9824V30.5759H75.6207V1.38593Z" fill="#B0B0B0"/>
<path d="M81.8523 10.4719C81.8523 4.35956 86.5014 0.868958 97.4229 0.868958C102.636 0.868958 108.146 1.63872 110.364 2.50756V8.77235C107.285 7.80443 101.531 6.95846 95.8376 6.95846C91.7221 6.95846 88.5744 7.7206 88.5744 10.2433C88.5744 12.5526 91.2114 12.8955 96.2111 13.208C107.026 13.8634 111.21 15.9365 111.21 21.7059C111.21 28.0926 105.364 31.004 95.6318 31.004C90.2816 31.004 85.1905 30.3562 82.1953 29.4111V23.3292C85.2515 24.038 90.1673 24.9831 95.7081 24.9831C101.249 24.9831 104.427 24.1981 104.427 21.8278C104.427 19.9072 102.788 19.4728 97.2476 19.1146C87.3626 18.4668 81.8447 15.9822 81.8447 10.4719" fill="#B0B0B0"/>
</svg>