<?xml version="1.0" standalone="no"?>
<!DOCTYPE svg PUBLIC "-//W3C//DTD SVG 20010904//EN"
 "http://www.w3.org/TR/2001/REC-SVG-20010904/DTD/svg10.dtd">
<svg version="1.0" xmlns="http://www.w3.org/2000/svg"
 width="300.000000pt" height="188.000000pt" viewBox="0 0 300.000000 188.000000"
 preserveAspectRatio="xMidYMid meet">
<metadata>
Created by potrace 1.10, written by Peter Selinger 2001-2011
</metadata>
<g transform="translate(0.000000,188.000000) scale(0.100000,-0.100000)"
fill="#000000" stroke="none">
<path d="M470 1307 c-76 -22 -123 -49 -175 -102 -216 -215 -105 -572 197 -636
110 -24 247 20 333 106 183 182 127 496 -108 605 -75 35 -179 47 -247 27z
m201 -74 l39 -15 0 -170 c0 -171 -5 -199 -39 -225 -25 -19 -86 -16 -112 6 -21
16 -25 31 -29 98 -5 76 -6 78 -32 81 l-28 3 0 -76 c0 -92 18 -136 67 -166 45
-28 125 -29 161 -2 62 47 67 60 72 241 l5 167 27 -35 c95 -125 92 -291 -7
-408 -64 -77 -188 -122 -279 -104 -28 6 -63 15 -78 21 l-28 11 0 180 c0 179 0
181 25 205 34 35 93 34 125 0 19 -20 25 -40 29 -98 6 -69 7 -72 31 -72 24 0
25 3 28 70 2 51 -2 79 -15 105 -53 104 -207 109 -268 8 -18 -29 -20 -50 -19
-190 0 -87 -2 -158 -6 -158 -3 0 -22 25 -42 55 -82 125 -71 275 28 384 91 101
223 133 345 84z"/>
<path d="M1256 1100 c-16 -5 -40 -19 -53 -32 -46 -42 -56 -76 -61 -195 l-4
-112 41 1 41 0 0 105 c0 102 1 105 29 134 21 21 39 29 63 29 69 -1 88 -38 88
-168 l0 -99 40 0 40 0 0 91 c0 111 -12 156 -51 201 -43 48 -106 65 -173 45z"/>
<path d="M1635 1092 c-46 -21 -92 -71 -101 -108 -20 -78 21 -175 86 -209 37
-19 123 -19 159 0 64 33 109 122 96 188 -24 111 -142 175 -240 129z m136 -91
c23 -23 29 -38 29 -71 0 -53 -42 -100 -89 -100 -97 0 -148 105 -82 171 41 41
101 41 142 0z"/>
<path d="M2192 1101 c-111 -19 -150 -124 -66 -173 17 -10 71 -23 119 -30 92
-12 115 -28 79 -55 -15 -12 -40 -14 -109 -10 -49 3 -100 9 -112 12 -20 7 -22
4 -20 -31 3 -37 5 -39 47 -47 67 -12 200 -3 236 16 54 28 68 101 29 141 -20
19 -69 32 -160 43 -61 7 -70 11 -73 30 -5 33 53 46 152 33 43 -5 82 -12 87
-15 5 -4 9 12 9 33 0 33 -4 41 -22 45 -46 11 -154 15 -196 8z"/>
<path d="M1930 930 l0 -170 40 0 40 0 0 170 0 170 -40 0 -40 0 0 -170z"/>
<path d="M2533 1085 c-47 -20 -67 -66 -68 -150 0 -79 15 -117 58 -149 25 -18
45 -21 163 -24 l134 -4 0 39 0 39 -112 -3 c-122 -4 -154 4 -169 45 l-8 22 144
0 145 0 0 35 0 35 -145 0 c-133 0 -144 1 -138 18 13 36 34 42 160 42 l123 0 0
35 0 35 -127 0 c-86 -1 -138 -5 -160 -15z"/>
</g>
</svg>
